<svg width="17" height="35" viewBox="0 0 17 35" fill="none" xmlns="http://www.w3.org/2000/svg">
<path d="M14.1283 34.3826C13.7867 34.3839 13.4493 34.3038 13.1407 34.1483C12.8321 33.9928 12.5603 33.7659 12.3451 33.4842L1.3031 18.9141C0.966854 18.4796 0.783035 17.9346 0.783035 17.3721C0.783035 16.8096 0.966854 16.2646 1.3031 15.8301L12.7337 1.26006C13.1218 0.764149 13.6794 0.45229 14.2839 0.393088C14.8884 0.333886 15.4903 0.532189 15.9572 0.944372C16.424 1.35656 16.7176 1.94886 16.7734 2.59097C16.8291 3.23309 16.6424 3.87243 16.2544 4.36833L6.03538 17.3842L15.9114 30.4002C16.191 30.7566 16.3686 31.1907 16.4232 31.6509C16.4778 32.1112 16.4071 32.5785 16.2195 32.9975C16.0319 33.4164 15.7353 33.7695 15.3646 34.015C14.994 34.2605 14.565 34.3881 14.1283 34.3826Z" fill="#B02E51"/>
</svg>
