<svg width="17" height="35" viewBox="0 0 17 35" fill="none" xmlns="http://www.w3.org/2000/svg">
<path d="M2.87181 0.617355C3.21334 0.616119 3.5508 0.69619 3.85938 0.851673C4.16796 1.00716 4.43982 1.2341 4.65499 1.51584L15.697 16.0859C16.0332 16.5204 16.217 17.0654 16.217 17.6279C16.217 18.1904 16.0332 18.7354 15.697 19.1699L4.26635 33.7399C3.8783 34.2359 3.32069 34.5477 2.71618 34.6069C2.11167 34.6661 1.50977 34.4678 1.04291 34.0556C0.576043 33.6434 0.28245 33.0511 0.226714 32.409C0.170979 31.7669 0.357668 31.1276 0.745711 30.6317L10.9647 17.6158L1.08863 4.59983C0.809077 4.24339 0.631497 3.80935 0.576906 3.34906C0.522314 2.88877 0.592994 2.4215 0.780584 2.00254C0.968174 1.58358 1.26482 1.23048 1.63543 0.984993C2.00603 0.739513 2.43508 0.611935 2.87181 0.617355Z" fill="#B02E51"/>
</svg>
